<svg width="96" height="96" xmlns="http://www.w3.org/2000/svg" xmlns:xlink="http://www.w3.org/1999/xlink" xml:space="preserve" overflow="hidden"><g transform="translate(-849 -758)"><path d="M894.222 808.879 888.565 803.222 894.222 797.565 899.879 803.222C901.06 804.384 902.96 804.368 904.122 803.187 905.27 802.019 905.27 800.146 904.121 798.979L898.464 793.323 902 789.787 894.929 782.716C889.897 777.682 882.02 776.878 876.074 780.791L873.755 778.391C868.658 773.146 861.661 770.18 854.347 770.163L851 770.163 851 776.163 854.347 776.163C860.037 776.174 865.482 778.482 869.447 782.563L871.829 785.027C867.882 790.975 868.674 798.88 873.721 803.927L880.787 811 884.323 807.464 889.979 813.121C891.16 814.283 893.059 814.268 894.221 813.087 895.37 811.92 895.37 810.047 894.222 808.879Z" fill="#FFFFFF"/><path d="M939.707 836C934.256 836.011 929.017 833.892 925.107 830.095L922.372 827.449C926.282 821.503 925.478 813.627 920.446 808.594L913.375 801.523 892.163 822.737 899.234 829.808C904.282 834.855 912.187 835.646 918.134 831.699L920.934 834.408C925.962 839.291 932.699 842.015 939.707 842L943 842 943 836Z" fill="#FFFFFF"/></g></svg>