<svg width="96" height="96" xmlns="http://www.w3.org/2000/svg" xmlns:xlink="http://www.w3.org/1999/xlink" xml:space="preserve" overflow="hidden"><g transform="translate(96 -759)"><path d="M-46 787.457C-41.5817 787.457-38 783.875-38 779.457-38 775.039-41.5817 771.457-46 771.457-50.4183 771.457-54 775.039-54 779.457-53.995 783.873-50.4162 787.452-46 787.457ZM-46 773.457C-42.6863 773.457-40 776.143-40 779.457-40 782.771-42.6863 785.457-46 785.457-49.3137 785.457-52 782.771-52 779.457-51.9961 776.145-49.3121 773.461-46 773.457Z" fill="#FFFFFF"/><path d="M-42.049 804.556C-39.8631 804.552-38.0942 802.777-38.0982 800.591-38.101 799.029-39.0219 797.615-40.449 796.981L-40.459 796.976-52.031 791.59-56 782.856C-56.475 781.741-57.3188 780.823-58.39 780.256-60.5455 779.186-63.1321 779.511-64.956 781.081L-64.994 781.114-82.943 796.677C-83.8838 797.441-84.5492 798.492-84.838 799.669L-88.926 815.457-83.442 815.457-82.942 818.919-84.936 838.069C-85.1667 840.259-83.5781 842.222-81.3877 842.453-81.3871 842.453-81.3866 842.453-81.386 842.453L-81.347 842.453-80.928 842.453C-78.8791 842.453-77.1634 840.901-76.959 838.862L-74.965 819.314-74.965 818.414-75.344 815.451-74.865 815.451-70.976 821.506-71.976 838.262C-72.0888 840.462-70.3971 842.337-68.197 842.451L-67.983 842.451C-65.8599 842.451-64.1091 840.787-64 838.667L-63 820.714C-62.9975 819.91-63.2043 819.12-63.6 818.42L-65.6 815.457-61.521 815.457-68.753 800.168-60.208 792.787-58.7 796.178C-58.3094 797.071-57.5977 797.785-56.706 798.178L-43.743 804.162C-43.2637 804.413-42.7329 804.55-42.192 804.562-42.168 804.556-42.072 804.557-42.049 804.556ZM-76.966 818.547-76.966 819.216-78.95 838.666C-79.052 839.691-79.92 840.468-80.95 840.457L-81.237 840.457C-82.303 840.312-83.0609 839.346-82.949 838.276L-80.955 819.126-80.929 818.879-80.965 818.633-81.422 815.457-77.362 815.457ZM-67.252 816.574-65.308 819.462C-65.1117 819.832-65.0062 820.243-65 820.662L-66 838.562C-66.0523 839.623-66.9291 840.455-67.991 840.452L-68.133 840.452C-69.2091 840.378-70.03 839.46-69.983 838.382L-68.942 820.98-72.489 815.457-68 815.457ZM-56.874 795.366-58.38 791.975-59.474 789.511-61.515 791.273-71.215 799.648-64.677 813.457-86.342 813.457-82.895 800.145C-82.7098 799.392-82.2843 798.72-81.683 798.23L-81.633 798.188-63.651 782.6C-62.9281 781.977-62.0053 781.635-61.051 781.635-60.4347 781.635-59.8268 781.778-59.274 782.05-58.617 782.413-58.1029 782.989-57.816 783.683L-53.847 792.417-53.541 793.091-52.87 793.403-41.27 798.803C-40.2781 799.234-39.8231 800.387-40.2537 801.379-40.5658 802.098-41.2764 802.561-42.06 802.557L-42.116 802.557C-42.3598 802.556-42.5999 802.497-42.816 802.384L-42.903 802.341-55.903 796.341C-56.3377 796.15-56.6843 795.802-56.874 795.366Z" fill="#FFFFFF"/><path d="M-19 825.925C-15.134 825.925-12 822.791-12 818.925-12 815.059-15.134 811.925-19 811.925-22.866 811.925-26 815.059-26 818.925-25.9956 822.789-22.8642 825.921-19 825.925ZM-19 813.925C-16.2386 813.925-14 816.164-14 818.925-14 821.686-16.2386 823.925-19 823.925-21.7614 823.925-24 821.686-24 818.925-23.9967 816.165-21.7601 813.928-19 813.925Z" fill="#FFFFFF"/><path d="M-54 829.363-11 829.363-11 831.363-54 831.363Z" fill="#FFFFFF"/><path d="M-47.148 814.28-50.5 819.316-50.567 819.43C-52.093 821.843-51.3736 825.037-48.9603 826.563-48.1291 827.088-47.1654 827.366-46.182 827.363L-32.038 827.363-31.971 827.363C-29.1875 827.355-26.9372 825.093-26.9449 822.309-26.9449 822.304-26.945 822.298-26.945 822.293L-28.03 810.565C-28.1449 808.912-29.5779 807.665-31.2308 807.78-32.8836 807.895-34.1304 809.328-34.0156 810.981-34.0118 811.035-34.0066 811.089-34 811.142L-33.4 817.365-40.369 817.376-39.856 813.611-39.807 813.191C-39.6955 811.917-40.4032 810.713-41.57 810.191L-50.684 806.141C-52.1924 805.455-53.9709 806.122-54.6565 807.631-55.3421 809.139-54.6751 810.918-53.1667 811.603-53.1512 811.61-53.1356 811.617-53.12 811.624ZM-52.814 808.48C-52.7077 808.237-52.508 808.048-52.26 807.954-52.0128 807.857-51.7371 807.864-51.495 807.973L-42.381 812.023C-42.0031 812.191-41.7698 812.577-41.796 812.99L-42.475 818.029-42.775 820.199C-42.849 820.746-42.4653 821.25-41.918 821.324-41.918 821.324-41.918 821.324-41.918 821.324-41.8729 821.33-41.8275 821.333-41.782 821.333-41.2823 821.332-40.86 820.962-40.793 820.467L-40.645 819.378-32.301 819.365C-31.7487 819.364-31.3019 818.915-31.303 818.363-31.3031 818.33-31.3047 818.298-31.308 818.265L-32.017 810.947C-32.0698 810.397-31.6669 809.909-31.1171 809.856-31.1171 809.856-31.1171 809.856-31.117 809.856-30.8548 809.829-30.5926 809.908-30.39 810.077-30.1835 810.245-30.0531 810.488-30.028 810.753L-28.969 822.015-28.954 822.335C-28.956 823.991-30.2872 825.339-31.943 825.361-31.966 825.361-32 825.361-32.008 825.361L-46.192 825.361C-47.9427 825.369-49.3687 823.957-49.3771 822.206-49.38 821.595-49.2064 820.997-48.877 820.482L-48.858 820.451-44.826 814.4C-44.5199 813.94-44.6444 813.32-45.1041 813.013-45.151 812.982-45.2005 812.955-45.252 812.932L-52.307 809.8C-52.8115 809.575-53.0384 808.984-52.814 808.48Z" fill="#FFFFFF"/></g></svg>