<svg width="96" height="96" xmlns="http://www.w3.org/2000/svg" xmlns:xlink="http://www.w3.org/1999/xlink" xml:space="preserve" overflow="hidden"><g transform="translate(-729 -761)"><path d="M774.5 775C774.5 779.418 770.918 783 766.5 783 762.082 783 758.5 779.418 758.5 775 758.5 770.582 762.082 767 766.5 767 770.918 767 774.5 770.582 774.5 775Z" fill="#FFFFFF"/><path d="M793.6 830.3C790.9 839.9 782 847 771.5 847 758.8 847 748.5 836.7 748.5 824 748.5 823.5 748.5 823.1 748.5 822.6L746.1 814.8C745.1 817.7 744.5 820.7 744.5 823.9 744.5 838.8 756.6 850.9 771.5 850.9 782.5 850.9 792 844.3 796.2 834.8L793.6 830.3Z" fill="#FFFFFF"/><path d="M809 833 797 812C796.3 810.8 795 810 793.5 810L777.4 810 775.4 791.6C774.6 787.2 770.5 784.3 766.1 785.1 765.1 785.3 764.2 785.6 763.4 786.1L747.5 795.5C745.9 796.4 745.2 798.4 745.7 800.1L750.7 816.1C751.2 817.8 752.8 818.9 754.5 818.9 754.9 818.9 755.3 818.8 755.7 818.7 757.8 818 759 815.8 758.3 813.7L754.2 800.7 760.1 797.2 762.6 811.3C763.3 815.2 766.7 817.9 770.5 817.9L770.5 817.9 791.2 817.9 802 837C802.7 838.3 804.1 839 805.5 839 806.2 839 806.9 838.8 807.5 838.5 809.4 837.4 810.1 834.9 809 833Z" fill="#FFFFFF"/></g></svg>