<svg width="96" height="96" xmlns="http://www.w3.org/2000/svg" xmlns:xlink="http://www.w3.org/1999/xlink" xml:space="preserve" overflow="hidden"><g transform="translate(-595 -757)"><path d="M640.5 777C625 777 612.5 789.5 612.5 805 612.5 809.9 613.8 814.5 616 818.5 618.1 816.3 620.4 814.1 622.9 811.7 629.2 805.8 636.6 799.8 642.8 795.4 643.2 795.1 643.6 794.9 644.1 794.9 645.2 794.9 646.1 795.8 646.1 796.9 646.1 797.6 645.8 798.1 645.3 798.5L645.3 798.5C636.4 804.9 624.6 814.8 616.6 823.8 616.6 823.8 615.5 825 615 825.6L615 825.6C610.5 830.9 607.5 835.7 607.5 839.1L613.5 839.1C613.5 836.9 617 832.1 622.3 826.4 627.2 830.6 633.5 833.1 640.5 833.1 645.5 833.1 650.3 831.8 654.4 829.4L654.4 829.4C675.8 817.5 678.5 795.6 678.5 771 678.5 771 655.2 777.4 640.5 777Z" fill="#FFFFFF"/></g></svg>