<svg width="96" height="96" xmlns="http://www.w3.org/2000/svg" xmlns:xlink="http://www.w3.org/1999/xlink" xml:space="preserve" overflow="hidden"><g transform="translate(241 -759)"><path d="M-164.3 821.3-168.8 818.7-165.3 817.8C-164.2 817.5-163.6 816.4-163.9 815.4-164.2 814.4-165.3 813.7-166.3 814L-173.7 816-176.6 814.3-167.6 811.9C-166.5 811.6-165.9 810.5-166.2 809.5-166.5 808.5-167.6 807.8-168.6 808.1L-181.5 811.5-185.3 809.3C-185.1 808.6-185 807.9-185 807.2-185 806.5-185.1 805.7-185.3 805.1L-181.5 802.9-168.6 806.3C-168.4 806.3-168.3 806.4-168.1 806.4-167.2 806.4-166.4 805.8-166.2 804.9-165.9 803.8-166.5 802.7-167.6 802.5L-176.6 800.1-173.7 798.4-166.3 800.4C-166.1 800.4-166 800.5-165.8 800.5-164.9 800.5-164.1 799.9-163.9 799-163.6 797.9-164.2 796.8-165.3 796.6L-168.8 795.7-164.3 793.1C-163.3 792.5-163 791.3-163.6 790.4-164.2 789.4-165.4 789.1-166.3 789.7L-170.8 792.3-169.9 788.8C-169.6 787.7-170.2 786.6-171.3 786.4-172.4 786.1-173.5 786.7-173.7 787.8L-175.7 795.2-178.6 796.9-176.2 787.9C-175.9 786.8-176.5 785.7-177.6 785.5-178.7 785.2-179.8 785.8-180 786.9L-183.4 799.8-187.2 802C-188.2 801-189.5 800.2-190.9 799.9L-190.9 795.5-181.5 786.1C-180.7 785.3-180.7 784.1-181.5 783.3-182.3 782.5-183.5 782.5-184.3 783.3L-191 789.2-191 785.9-185.6 780.5C-184.8 779.7-184.8 778.5-185.6 777.7-186.4 776.9-187.6 776.9-188.4 777.7L-191 780.2-191 775C-191 773.9-191.9 773-193 773-194.1 773-195 773.9-195 775L-195 780.2-197.6 777.6C-198.4 776.8-199.6 776.8-200.4 777.6-201.2 778.4-201.2 779.6-200.4 780.4L-195 785.8-195 789.1-201.6 782.5C-202.4 781.7-203.6 781.7-204.4 782.5-205.2 783.3-205.2 784.5-204.4 785.3L-195 794.7-195 799.1C-196.4 799.5-197.7 800.2-198.7 801.2L-202.5 799-206 786.3C-206.3 785.2-207.4 784.6-208.4 784.9-209.5 785.2-210.1 786.3-209.8 787.3L-207.4 796.3-210.3 794.6-212.3 787.2C-212.6 786.1-213.7 785.5-214.7 785.8-215.8 786.1-216.4 787.2-216.1 788.2L-215.2 791.7-219.7 789.1C-220.7 788.5-221.9 788.9-222.4 789.8-223 790.8-222.6 792-221.7 792.5L-217.2 795.1-220.7 796C-221.8 796.3-222.4 797.4-222.1 798.4-221.9 799.3-221.1 799.9-220.2 799.9-220 799.9-219.9 799.9-219.7 799.8L-212.3 797.8-209.4 799.5-218.4 801.9C-219.5 802.2-220.1 803.3-219.8 804.3-219.6 805.2-218.8 805.8-217.9 805.8-217.7 805.8-217.6 805.8-217.4 805.7L-204.5 802.3-200.7 804.5C-200.9 805.5-201 806.3-201 807-201 807.7-200.9 808.5-200.7 809.1L-204.5 811.3-217.4 807.9C-218.5 807.6-219.6 808.2-219.8 809.3-220 810.4-219.5 811.5-218.4 811.7L-209.4 814.1-212.3 815.8-219.7 813.8C-220.8 813.5-221.9 814.1-222.1 815.2-222.3 816.3-221.8 817.4-220.7 817.6L-217.2 818.5-221.7 821.1C-222.7 821.7-223 822.9-222.4 823.8-222 824.4-221.4 824.8-220.7 824.8-220.4 824.8-220 824.7-219.7 824.5L-215.2 821.9-216.1 825.4C-216.4 826.5-215.8 827.6-214.7 827.8-214.5 827.8-214.4 827.9-214.2 827.9-213.3 827.9-212.5 827.3-212.3 826.4L-210.3 819-207.4 817.3-209.8 826.3C-210.1 827.4-209.5 828.5-208.4 828.7-208.2 828.7-208.1 828.8-207.9 828.8-207 828.8-206.2 828.2-206 827.3L-202.6 814.4-198.8 812.2C-197.8 813.2-196.5 814-195.1 814.3L-195.1 818.7-204.5 828.1C-205.3 828.9-205.3 830.1-204.5 830.9-203.7 831.7-202.5 831.7-201.7 830.9L-195.1 824.3-195.1 827.6-200.5 833C-201.3 833.8-201.3 835-200.5 835.8-199.7 836.6-198.5 836.6-197.7 835.8L-195.1 833.2-195.1 839C-195.1 840.1-194.2 841-193.1 841-192 841-191.1 840.1-191.1 839L-191.1 833.8-188.5 836.4C-188 836.8-187.5 837-187 837-186.5 837-186 836.8-185.6 836.4-184.8 835.6-184.8 834.4-185.6 833.6L-191 828.2-191 824.9-184.4 831.5C-184 831.8-183.5 832-183 832-182.5 832-182 831.8-181.6 831.4-180.8 830.6-180.8 829.4-181.6 828.6L-191 819.2-191 814.8C-189.6 814.4-188.3 813.7-187.3 812.7L-183.5 814.9-180 827.7C-179.8 828.6-179 829.2-178.1 829.2-177.9 829.2-177.8 829.2-177.6 829.1-176.5 828.8-175.9 827.7-176.2 826.7L-178.6 817.7-175.7 819.4-173.7 826.8C-173.5 827.7-172.7 828.3-171.8 828.3-171.6 828.3-171.5 828.3-171.3 828.2-170.2 827.9-169.6 826.8-169.9 825.8L-170.8 822.3-166.3 824.9C-166 825.1-165.6 825.2-165.3 825.2-164.6 825.2-163.9 824.8-163.6 824.2-163 823-163.3 821.8-164.3 821.3Z" fill="#FFFFFF"/></g></svg>