<svg width="96" height="96" xmlns="http://www.w3.org/2000/svg" xmlns:xlink="http://www.w3.org/1999/xlink" xml:space="preserve" overflow="hidden"><g transform="translate(-1004 -758)"><path d="M1098.01 802.627 1086.38 802.627 1082.51 791.002 1078.63 802.627 1067.51 802.627 1067.01 802.627 1055.88 802.627 1052.01 791.002 1048.13 802.627 1037.01 802.627 1036.51 802.627 1025.38 802.627 1021.51 791.002 1017.63 802.627 1006.01 802.627 1014.92 810.377 1011.43 822.002 1021.51 815.027 1031.58 822.002 1028.09 810.377 1036.76 802.845 1045.42 810.377 1041.93 822.002 1052.01 815.027 1062.08 822.002 1058.59 810.377 1067.26 802.845 1075.92 810.377 1072.43 822.002 1082.51 815.027 1092.58 822.002 1089.09 810.377 1098.01 802.627Z" fill="#FFFFFF"/></g></svg>