<svg width="96" height="96" xmlns="http://www.w3.org/2000/svg" xmlns:xlink="http://www.w3.org/1999/xlink" xml:space="preserve" overflow="hidden"><g transform="translate(-464 -758)"><path d="M522.2 784 516.2 790 493.7 790 487.7 784 522.2 784ZM527.8 784 536.3 784 530.3 790 521.8 790 527.8 784ZM512 800C510.3 800 509 798.7 509 797 509 795.3 510.3 794 512 794 513.7 794 515 795.3 515 797 515 798.7 513.7 800 512 800ZM545.1 780.9C545.4 780.6 545.2 780 544.7 780L531.7 780 536.3 775.4C537.1 774.6 537.1 773.4 536.3 772.6 535.5 771.8 534.3 771.8 533.5 772.6L526.2 780 479.2 780C478.8 780 478.5 780.5 478.8 780.9L510 812 510 832C510 833 508.7 833.8 507.1 834.3 505.6 834.5 504.2 834.7 503.1 835L503 835C501.1 835.5 500 836.2 500 837 500 838.7 505.4 840 512 840 518.6 840 524 838.7 524 837 524 836.2 522.8 835.5 521 835 519.8 834.7 518.5 834.4 516.9 834.3 515.3 833.8 514 833 514 832L514 812 545.1 780.9Z" fill="#FFFFFF"/></g></svg>