<svg width="96" height="96" xmlns="http://www.w3.org/2000/svg" xmlns:xlink="http://www.w3.org/1999/xlink" xml:space="preserve" overflow="hidden"><g transform="translate(-191 -759)"><path d="M273 801 205 801 205 785 273 785 273 801ZM273 829 205 829 205 813 273 813 273 829ZM275 779 203 779C200.8 779 199 780.8 199 783L199 831C199 833.2 200.8 835 203 835L275 835C277.2 835 279 833.2 279 831L279 783C279 780.8 277.2 779 275 779Z" fill="#FFFFFF"/><path d="M211 819 227 819 227 823 211 823Z" fill="#FFFFFF"/><path d="M231 819 239 819 239 823 231 823Z" fill="#FFFFFF"/></g></svg>