<svg width="96" height="96" xmlns="http://www.w3.org/2000/svg" xmlns:xlink="http://www.w3.org/1999/xlink" xml:space="preserve" overflow="hidden"><g transform="translate(-36 -756)"><path d="M64 829C64 831.209 65.7909 833 68 833 70.2091 833 72 831.209 72 829L72 822 64 822Z" fill="#FFFFFF"/><path d="M54 829C54 831.209 55.7909 833 58 833 60.2091 833 62 831.209 62 829L62 820 80 820 80 829C80 831.209 81.7909 833 84 833 86.2091 833 88 831.209 88 829L88 820 90 820 90 829C90 831.209 91.7909 833 94 833 96.2091 833 98 831.209 98 829L98 813.8C98 808.94 101.94 805 106.8 805L111.519 805C116.753 805.002 120.998 800.761 121 795.527 121 795.525 121 795.524 121 795.522L121 795.258C120.999 792.907 119.093 791.001 116.742 791L114.975 791C114.781 786.917 112.236 783.317 108.452 781.772 107.822 778.849 106.594 775 104.5 775 102.451 775 101.233 778.684 100.59 781.58 98.053 782.466 95.7949 784.006 94.044 786.044L88.967 790.967 82.716 797.218C80.9347 798.999 78.519 800 76 800L59.657 800 53.829 794.171C52.2666 792.609 49.7334 792.609 48.171 794.171 46.6086 795.733 46.6086 798.267 48.171 799.829L54 805.657ZM97.315 808.643 85.715 797.043 88.543 794.215 99.863 805.535C98.8277 806.404 97.9636 807.458 97.315 808.643Z" fill="#FFFFFF"/></g></svg>