<svg width="96" height="96" xmlns="http://www.w3.org/2000/svg" xmlns:xlink="http://www.w3.org/1999/xlink" xml:space="preserve" overflow="hidden"><g transform="translate(-326 -758)"><path d="M374 783C361.3 783 349.8 788.2 341.5 796.5L347.2 802.2C354 795.3 363.5 791 374 791 384.5 791 394 795.3 400.9 802.1L406.6 796.4C398.1 788.2 386.7 783 374 783Z" fill="#FFFFFF"/><path d="M350 805 355.7 810.7C360.2 805.9 366.8 803 374 803 381.2 803 387.7 805.9 392.4 810.6L398 805C391.8 798.8 383.3 795 374 795 364.7 795 356.1 798.8 350 805Z" fill="#FFFFFF"/><path d="M358.5 813.5 364.2 819.2C366.7 816.7 370.2 815.1 374.1 815.1 378 815.1 381.5 816.7 384 819.2L389.7 813.5C385.7 809.5 380.2 807 374.2 807 368.2 807 362.4 809.5 358.5 813.5Z" fill="#FFFFFF"/><path d="M366.9 821.9 374 829 381.1 821.9C379.2 820.1 376.8 819 374 819 371.2 819 368.7 820.1 366.9 821.9Z" fill="#FFFFFF"/></g></svg>